%TF.GenerationSoftware,KiCad,Pcbnew,(6.0.9)*%
%TF.CreationDate,2024-12-27T08:11:02-03:00*%
%TF.ProjectId,shield teensy_v2,73686965-6c64-4207-9465-656e73795f76,rev?*%
%TF.SameCoordinates,Original*%
%TF.FileFunction,Copper,L2,Bot*%
%TF.FilePolarity,Positive*%
%FSLAX46Y46*%
G04 Gerber Fmt 4.6, Leading zero omitted, Abs format (unit mm)*
G04 Created by KiCad (PCBNEW (6.0.9)) date 2024-12-27 08:11:02*
%MOMM*%
%LPD*%
G01*
G04 APERTURE LIST*
%TA.AperFunction,ComponentPad*%
%ADD10C,5.700000*%
%TD*%
%TA.AperFunction,ComponentPad*%
%ADD11R,1.700000X1.700000*%
%TD*%
%TA.AperFunction,ComponentPad*%
%ADD12O,1.700000X1.700000*%
%TD*%
G04 APERTURE END LIST*
D10*
%TO.P,H4,1*%
%TO.N,N/C*%
X150210000Y-124650000D03*
%TD*%
D11*
%TO.P,J5,1,Pin_1*%
%TO.N,GND1*%
X172080000Y-122940000D03*
D12*
%TO.P,J5,2,Pin_2*%
X172080000Y-120400000D03*
%TO.P,J5,3,Pin_3*%
X172080000Y-117860000D03*
%TD*%
D10*
%TO.P,H3,1*%
%TO.N,N/C*%
X194660000Y-124650000D03*
%TD*%
%TO.P,H2,1*%
%TO.N,N/C*%
X194660000Y-68710000D03*
%TD*%
D11*
%TO.P,J2,1,Pin_1*%
%TO.N,+5V*%
X180370000Y-77025000D03*
D12*
%TO.P,J2,2,Pin_2*%
%TO.N,GND1*%
X180370000Y-79565000D03*
%TO.P,J2,3,Pin_3*%
%TO.N,+3.3V*%
X180370000Y-82105000D03*
%TO.P,J2,4,Pin_4*%
%TO.N,Net-(J2-Pad4)*%
X180370000Y-84645000D03*
%TO.P,J2,5,Pin_5*%
%TO.N,Net-(J2-Pad5)*%
X180370000Y-87185000D03*
%TO.P,J2,6,Pin_6*%
%TO.N,Net-(J2-Pad6)*%
X180370000Y-89725000D03*
%TO.P,J2,7,Pin_7*%
%TO.N,Net-(J2-Pad7)*%
X180370000Y-92265000D03*
%TO.P,J2,8,Pin_8*%
%TO.N,Net-(J2-Pad8)*%
X180370000Y-94805000D03*
%TO.P,J2,9,Pin_9*%
%TO.N,Net-(J2-Pad9)*%
X180370000Y-97345000D03*
%TO.P,J2,10,Pin_10*%
%TO.N,Net-(J2-Pad10)*%
X180370000Y-99885000D03*
%TO.P,J2,11,Pin_11*%
%TO.N,Net-(J2-Pad11)*%
X180370000Y-102425000D03*
%TO.P,J2,12,Pin_12*%
%TO.N,Net-(J2-Pad12)*%
X180370000Y-104965000D03*
%TO.P,J2,13,Pin_13*%
%TO.N,Net-(J2-Pad13)*%
X180370000Y-107505000D03*
%TO.P,J2,14,Pin_14*%
%TO.N,unconnected-(J2-Pad14)*%
X180370000Y-110045000D03*
%TD*%
D11*
%TO.P,J3,1,Pin_1*%
%TO.N,GND*%
X155241191Y-77025000D03*
D12*
%TO.P,J3,2,Pin_2*%
%TO.N,Net-(J1-Pad2)*%
X155241191Y-79565000D03*
%TO.P,J3,3,Pin_3*%
%TO.N,Net-(J1-Pad3)*%
X155241191Y-82105000D03*
%TO.P,J3,4,Pin_4*%
%TO.N,Net-(J1-Pad4)*%
X155241191Y-84645000D03*
%TO.P,J3,5,Pin_5*%
%TO.N,Net-(J1-Pad5)*%
X155241191Y-87185000D03*
%TO.P,J3,6,Pin_6*%
%TO.N,Net-(J1-Pad6)*%
X155241191Y-89725000D03*
%TO.P,J3,7,Pin_7*%
%TO.N,Net-(J1-Pad7)*%
X155241191Y-92265000D03*
%TO.P,J3,8,Pin_8*%
%TO.N,Net-(J1-Pad8)*%
X155241191Y-94805000D03*
%TO.P,J3,9,Pin_9*%
%TO.N,Net-(J1-Pad9)*%
X155241191Y-97345000D03*
%TO.P,J3,10,Pin_10*%
%TO.N,Net-(J1-Pad10)*%
X155241191Y-99885000D03*
%TO.P,J3,11,Pin_11*%
%TO.N,Net-(J1-Pad11)*%
X155241191Y-102425000D03*
%TO.P,J3,12,Pin_12*%
%TO.N,Net-(J1-Pad12)*%
X155241191Y-104965000D03*
%TO.P,J3,13,Pin_13*%
%TO.N,Net-(J1-Pad13)*%
X155241191Y-107505000D03*
%TO.P,J3,14,Pin_14*%
%TO.N,unconnected-(J3-Pad14)*%
X155241191Y-110045000D03*
%TD*%
D10*
%TO.P,H1,1*%
%TO.N,N/C*%
X150210000Y-68710000D03*
%TD*%
D11*
%TO.P,J6,1,Pin_1*%
%TO.N,+5V*%
X167390000Y-122940000D03*
D12*
%TO.P,J6,2,Pin_2*%
X167390000Y-120400000D03*
%TO.P,J6,3,Pin_3*%
X167390000Y-117860000D03*
%TD*%
D11*
%TO.P,J7,1,Pin_1*%
%TO.N,+3.3V*%
X176680000Y-122940000D03*
D12*
%TO.P,J7,2,Pin_2*%
X176680000Y-120400000D03*
%TO.P,J7,3,Pin_3*%
X176680000Y-117860000D03*
%TD*%
D11*
%TO.P,J1,1,Pin_1*%
%TO.N,GND*%
X164456191Y-77025000D03*
D12*
%TO.P,J1,2,Pin_2*%
%TO.N,Net-(J1-Pad2)*%
X164456191Y-79565000D03*
%TO.P,J1,3,Pin_3*%
%TO.N,Net-(J1-Pad3)*%
X164456191Y-82105000D03*
%TO.P,J1,4,Pin_4*%
%TO.N,Net-(J1-Pad4)*%
X164456191Y-84645000D03*
%TO.P,J1,5,Pin_5*%
%TO.N,Net-(J1-Pad5)*%
X164456191Y-87185000D03*
%TO.P,J1,6,Pin_6*%
%TO.N,Net-(J1-Pad6)*%
X164456191Y-89725000D03*
%TO.P,J1,7,Pin_7*%
%TO.N,Net-(J1-Pad7)*%
X164456191Y-92265000D03*
%TO.P,J1,8,Pin_8*%
%TO.N,Net-(J1-Pad8)*%
X164456191Y-94805000D03*
%TO.P,J1,9,Pin_9*%
%TO.N,Net-(J1-Pad9)*%
X164456191Y-97345000D03*
%TO.P,J1,10,Pin_10*%
%TO.N,Net-(J1-Pad10)*%
X164456191Y-99885000D03*
%TO.P,J1,11,Pin_11*%
%TO.N,Net-(J1-Pad11)*%
X164456191Y-102425000D03*
%TO.P,J1,12,Pin_12*%
%TO.N,Net-(J1-Pad12)*%
X164456191Y-104965000D03*
%TO.P,J1,13,Pin_13*%
%TO.N,Net-(J1-Pad13)*%
X164456191Y-107505000D03*
%TO.P,J1,14,Pin_14*%
%TO.N,unconnected-(J1-Pad14)*%
X164456191Y-110045000D03*
%TD*%
D11*
%TO.P,J4,1,Pin_1*%
%TO.N,+5V*%
X189720715Y-77025000D03*
D12*
%TO.P,J4,2,Pin_2*%
%TO.N,GND1*%
X189720715Y-79565000D03*
%TO.P,J4,3,Pin_3*%
%TO.N,+3.3V*%
X189720715Y-82105000D03*
%TO.P,J4,4,Pin_4*%
%TO.N,Net-(J2-Pad4)*%
X189720715Y-84645000D03*
%TO.P,J4,5,Pin_5*%
%TO.N,Net-(J2-Pad5)*%
X189720715Y-87185000D03*
%TO.P,J4,6,Pin_6*%
%TO.N,Net-(J2-Pad6)*%
X189720715Y-89725000D03*
%TO.P,J4,7,Pin_7*%
%TO.N,Net-(J2-Pad7)*%
X189720715Y-92265000D03*
%TO.P,J4,8,Pin_8*%
%TO.N,Net-(J2-Pad8)*%
X189720715Y-94805000D03*
%TO.P,J4,9,Pin_9*%
%TO.N,Net-(J2-Pad9)*%
X189720715Y-97345000D03*
%TO.P,J4,10,Pin_10*%
%TO.N,Net-(J2-Pad10)*%
X189720715Y-99885000D03*
%TO.P,J4,11,Pin_11*%
%TO.N,Net-(J2-Pad11)*%
X189720715Y-102425000D03*
%TO.P,J4,12,Pin_12*%
%TO.N,Net-(J2-Pad12)*%
X189720715Y-104965000D03*
%TO.P,J4,13,Pin_13*%
%TO.N,Net-(J2-Pad13)*%
X189720715Y-107505000D03*
%TO.P,J4,14,Pin_14*%
%TO.N,unconnected-(J4-Pad14)*%
X189720715Y-110045000D03*
%TD*%
M02*
