%TF.GenerationSoftware,KiCad,Pcbnew,(6.0.9)*%
%TF.CreationDate,2024-12-27T08:11:02-03:00*%
%TF.ProjectId,shield teensy_v2,73686965-6c64-4207-9465-656e73795f76,rev?*%
%TF.SameCoordinates,Original*%
%TF.FileFunction,Soldermask,Bot*%
%TF.FilePolarity,Negative*%
%FSLAX46Y46*%
G04 Gerber Fmt 4.6, Leading zero omitted, Abs format (unit mm)*
G04 Created by KiCad (PCBNEW (6.0.9)) date 2024-12-27 08:11:02*
%MOMM*%
%LPD*%
G01*
G04 APERTURE LIST*
%ADD10C,5.700000*%
%ADD11R,1.700000X1.700000*%
%ADD12O,1.700000X1.700000*%
G04 APERTURE END LIST*
D10*
%TO.C,H4*%
X150210000Y-124650000D03*
%TD*%
D11*
%TO.C,J5*%
X172080000Y-122940000D03*
D12*
X172080000Y-120400000D03*
X172080000Y-117860000D03*
%TD*%
D10*
%TO.C,H3*%
X194660000Y-124650000D03*
%TD*%
%TO.C,H2*%
X194660000Y-68710000D03*
%TD*%
D11*
%TO.C,J2*%
X180370000Y-77025000D03*
D12*
X180370000Y-79565000D03*
X180370000Y-82105000D03*
X180370000Y-84645000D03*
X180370000Y-87185000D03*
X180370000Y-89725000D03*
X180370000Y-92265000D03*
X180370000Y-94805000D03*
X180370000Y-97345000D03*
X180370000Y-99885000D03*
X180370000Y-102425000D03*
X180370000Y-104965000D03*
X180370000Y-107505000D03*
X180370000Y-110045000D03*
%TD*%
D11*
%TO.C,J3*%
X155241191Y-77025000D03*
D12*
X155241191Y-79565000D03*
X155241191Y-82105000D03*
X155241191Y-84645000D03*
X155241191Y-87185000D03*
X155241191Y-89725000D03*
X155241191Y-92265000D03*
X155241191Y-94805000D03*
X155241191Y-97345000D03*
X155241191Y-99885000D03*
X155241191Y-102425000D03*
X155241191Y-104965000D03*
X155241191Y-107505000D03*
X155241191Y-110045000D03*
%TD*%
D10*
%TO.C,H1*%
X150210000Y-68710000D03*
%TD*%
D11*
%TO.C,J6*%
X167390000Y-122940000D03*
D12*
X167390000Y-120400000D03*
X167390000Y-117860000D03*
%TD*%
D11*
%TO.C,J7*%
X176680000Y-122940000D03*
D12*
X176680000Y-120400000D03*
X176680000Y-117860000D03*
%TD*%
D11*
%TO.C,J1*%
X164456191Y-77025000D03*
D12*
X164456191Y-79565000D03*
X164456191Y-82105000D03*
X164456191Y-84645000D03*
X164456191Y-87185000D03*
X164456191Y-89725000D03*
X164456191Y-92265000D03*
X164456191Y-94805000D03*
X164456191Y-97345000D03*
X164456191Y-99885000D03*
X164456191Y-102425000D03*
X164456191Y-104965000D03*
X164456191Y-107505000D03*
X164456191Y-110045000D03*
%TD*%
D11*
%TO.C,J4*%
X189720715Y-77025000D03*
D12*
X189720715Y-79565000D03*
X189720715Y-82105000D03*
X189720715Y-84645000D03*
X189720715Y-87185000D03*
X189720715Y-89725000D03*
X189720715Y-92265000D03*
X189720715Y-94805000D03*
X189720715Y-97345000D03*
X189720715Y-99885000D03*
X189720715Y-102425000D03*
X189720715Y-104965000D03*
X189720715Y-107505000D03*
X189720715Y-110045000D03*
%TD*%
M02*
