M48
; DRILL file {KiCad (6.0.9)} date Fri Dec 27 08:11:10 2024
; FORMAT={-:-/ absolute / inch / decimal}
; #@! TF.CreationDate,2024-12-27T08:11:10-03:00
; #@! TF.GenerationSoftware,Kicad,Pcbnew,(6.0.9)
; #@! TF.FileFunction,Plated,1,2,PTH
FMAT,2
INCH
; #@! TA.AperFunction,Plated,PTH,ComponentDrill
T1C0.0394
; #@! TA.AperFunction,Plated,PTH,ComponentDrill
T2C0.1260
%
G90
G05
T1
X6.1119Y-3.0325
X6.1119Y-3.1325
X6.1119Y-3.2325
X6.1119Y-3.3325
X6.1119Y-3.4325
X6.1119Y-3.5325
X6.1119Y-3.6325
X6.1119Y-3.7325
X6.1119Y-3.8325
X6.1119Y-3.9325
X6.1119Y-4.0325
X6.1119Y-4.1325
X6.1119Y-4.2325
X6.1119Y-4.3325
X6.4747Y-3.0325
X6.4747Y-3.1325
X6.4747Y-3.2325
X6.4747Y-3.3325
X6.4747Y-3.4325
X6.4747Y-3.5325
X6.4747Y-3.6325
X6.4747Y-3.7325
X6.4747Y-3.8325
X6.4747Y-3.9325
X6.4747Y-4.0325
X6.4747Y-4.1325
X6.4747Y-4.2325
X6.4747Y-4.3325
X6.5902Y-4.6402
X6.5902Y-4.7402
X6.5902Y-4.8402
X6.7748Y-4.6402
X6.7748Y-4.7402
X6.7748Y-4.8402
X6.9559Y-4.6402
X6.9559Y-4.7402
X6.9559Y-4.8402
X7.1012Y-3.0325
X7.1012Y-3.1325
X7.1012Y-3.2325
X7.1012Y-3.3325
X7.1012Y-3.4325
X7.1012Y-3.5325
X7.1012Y-3.6325
X7.1012Y-3.7325
X7.1012Y-3.8325
X7.1012Y-3.9325
X7.1012Y-4.0325
X7.1012Y-4.1325
X7.1012Y-4.2325
X7.1012Y-4.3325
X7.4693Y-3.0325
X7.4693Y-3.1325
X7.4693Y-3.2325
X7.4693Y-3.3325
X7.4693Y-3.4325
X7.4693Y-3.5325
X7.4693Y-3.6325
X7.4693Y-3.7325
X7.4693Y-3.8325
X7.4693Y-3.9325
X7.4693Y-4.0325
X7.4693Y-4.1325
X7.4693Y-4.2325
X7.4693Y-4.3325
T2
X5.9138Y-2.7051
X5.9138Y-4.9075
X7.6638Y-2.7051
X7.6638Y-4.9075
T0
M30
