%TF.GenerationSoftware,KiCad,Pcbnew,(6.0.9)*%
%TF.CreationDate,2024-12-27T08:11:09-03:00*%
%TF.ProjectId,shield teensy_v2,73686965-6c64-4207-9465-656e73795f76,rev?*%
%TF.SameCoordinates,Original*%
%TF.FileFunction,Drillmap*%
%TF.FilePolarity,Positive*%
%FSLAX45Y45*%
G04 Gerber Fmt 4.5, Leading zero omitted, Abs format (unit mm)*
G04 Created by KiCad (PCBNEW (6.0.9)) date 2024-12-27 08:11:09*
%MOMM*%
%LPD*%
G01*
G04 APERTURE LIST*
%ADD10C,0.100000*%
%ADD11C,0.200000*%
G04 APERTURE END LIST*
D10*
X20173000Y-13145000D02*
X14334000Y-13145000D01*
X14334000Y-13145000D02*
X14334000Y-6237000D01*
X14334000Y-6237000D02*
X20173000Y-6237000D01*
X20173000Y-6237000D02*
X20173000Y-13145000D01*
D11*
X14586619Y-13460476D02*
X14586619Y-13260476D01*
X14634238Y-13260476D01*
X14662809Y-13270000D01*
X14681857Y-13289048D01*
X14691381Y-13308095D01*
X14700905Y-13346190D01*
X14700905Y-13374762D01*
X14691381Y-13412857D01*
X14681857Y-13431905D01*
X14662809Y-13450952D01*
X14634238Y-13460476D01*
X14586619Y-13460476D01*
X14786619Y-13460476D02*
X14786619Y-13327143D01*
X14786619Y-13365238D02*
X14796143Y-13346190D01*
X14805667Y-13336667D01*
X14824714Y-13327143D01*
X14843762Y-13327143D01*
X14910428Y-13460476D02*
X14910428Y-13327143D01*
X14910428Y-13260476D02*
X14900905Y-13270000D01*
X14910428Y-13279524D01*
X14919952Y-13270000D01*
X14910428Y-13260476D01*
X14910428Y-13279524D01*
X15034238Y-13460476D02*
X15015190Y-13450952D01*
X15005667Y-13431905D01*
X15005667Y-13260476D01*
X15139000Y-13460476D02*
X15119952Y-13450952D01*
X15110428Y-13431905D01*
X15110428Y-13260476D01*
X15367571Y-13460476D02*
X15367571Y-13260476D01*
X15434238Y-13403333D01*
X15500905Y-13260476D01*
X15500905Y-13460476D01*
X15681857Y-13460476D02*
X15681857Y-13355714D01*
X15672333Y-13336667D01*
X15653286Y-13327143D01*
X15615190Y-13327143D01*
X15596143Y-13336667D01*
X15681857Y-13450952D02*
X15662809Y-13460476D01*
X15615190Y-13460476D01*
X15596143Y-13450952D01*
X15586619Y-13431905D01*
X15586619Y-13412857D01*
X15596143Y-13393809D01*
X15615190Y-13384286D01*
X15662809Y-13384286D01*
X15681857Y-13374762D01*
X15777095Y-13327143D02*
X15777095Y-13527143D01*
X15777095Y-13336667D02*
X15796143Y-13327143D01*
X15834238Y-13327143D01*
X15853286Y-13336667D01*
X15862809Y-13346190D01*
X15872333Y-13365238D01*
X15872333Y-13422381D01*
X15862809Y-13441428D01*
X15853286Y-13450952D01*
X15834238Y-13460476D01*
X15796143Y-13460476D01*
X15777095Y-13450952D01*
X15958048Y-13441428D02*
X15967571Y-13450952D01*
X15958048Y-13460476D01*
X15948524Y-13450952D01*
X15958048Y-13441428D01*
X15958048Y-13460476D01*
X15958048Y-13336667D02*
X15967571Y-13346190D01*
X15958048Y-13355714D01*
X15948524Y-13346190D01*
X15958048Y-13336667D01*
X15958048Y-13355714D01*
M02*
