%TF.GenerationSoftware,KiCad,Pcbnew,(6.0.9)*%
%TF.CreationDate,2024-12-27T08:11:02-03:00*%
%TF.ProjectId,shield teensy_v2,73686965-6c64-4207-9465-656e73795f76,rev?*%
%TF.SameCoordinates,Original*%
%TF.FileFunction,Legend,Top*%
%TF.FilePolarity,Positive*%
%FSLAX46Y46*%
G04 Gerber Fmt 4.6, Leading zero omitted, Abs format (unit mm)*
G04 Created by KiCad (PCBNEW (6.0.9)) date 2024-12-27 08:11:02*
%MOMM*%
%LPD*%
G01*
G04 APERTURE LIST*
%ADD10C,0.150000*%
%ADD11C,0.120000*%
G04 APERTURE END LIST*
D10*
X177030237Y-107968094D02*
X176458809Y-107968094D01*
X176744523Y-107968094D02*
X176744523Y-106968094D01*
X176649285Y-107110952D01*
X176554047Y-107206190D01*
X176458809Y-107253809D01*
X177887380Y-107301428D02*
X177887380Y-107968094D01*
X177649285Y-106920475D02*
X177411190Y-107634761D01*
X178030237Y-107634761D01*
X185614524Y-89487619D02*
X185662143Y-89440000D01*
X185757381Y-89392380D01*
X185995476Y-89392380D01*
X186090714Y-89440000D01*
X186138333Y-89487619D01*
X186185952Y-89582857D01*
X186185952Y-89678095D01*
X186138333Y-89820952D01*
X185566905Y-90392380D01*
X186185952Y-90392380D01*
X187138333Y-90392380D02*
X186566905Y-90392380D01*
X186852619Y-90392380D02*
X186852619Y-89392380D01*
X186757381Y-89535238D01*
X186662143Y-89630476D01*
X186566905Y-89678095D01*
X185614524Y-86912619D02*
X185662143Y-86865000D01*
X185757381Y-86817380D01*
X185995476Y-86817380D01*
X186090714Y-86865000D01*
X186138333Y-86912619D01*
X186185952Y-87007857D01*
X186185952Y-87103095D01*
X186138333Y-87245952D01*
X185566905Y-87817380D01*
X186185952Y-87817380D01*
X186566905Y-86912619D02*
X186614524Y-86865000D01*
X186709762Y-86817380D01*
X186947857Y-86817380D01*
X187043095Y-86865000D01*
X187090714Y-86912619D01*
X187138333Y-87007857D01*
X187138333Y-87103095D01*
X187090714Y-87245952D01*
X186519286Y-87817380D01*
X187138333Y-87817380D01*
X183075715Y-82521428D02*
X183837619Y-82521428D01*
X183456667Y-82902380D02*
X183456667Y-82140476D01*
X184218572Y-81902380D02*
X184837619Y-81902380D01*
X184504286Y-82283333D01*
X184647143Y-82283333D01*
X184742381Y-82330952D01*
X184790000Y-82378571D01*
X184837619Y-82473809D01*
X184837619Y-82711904D01*
X184790000Y-82807142D01*
X184742381Y-82854761D01*
X184647143Y-82902380D01*
X184361429Y-82902380D01*
X184266191Y-82854761D01*
X184218572Y-82807142D01*
X185266191Y-82807142D02*
X185313810Y-82854761D01*
X185266191Y-82902380D01*
X185218572Y-82854761D01*
X185266191Y-82807142D01*
X185266191Y-82902380D01*
X185647143Y-81902380D02*
X186266191Y-81902380D01*
X185932857Y-82283333D01*
X186075715Y-82283333D01*
X186170953Y-82330952D01*
X186218572Y-82378571D01*
X186266191Y-82473809D01*
X186266191Y-82711904D01*
X186218572Y-82807142D01*
X186170953Y-82854761D01*
X186075715Y-82902380D01*
X185790000Y-82902380D01*
X185694762Y-82854761D01*
X185647143Y-82807142D01*
X186551905Y-81902380D02*
X186885238Y-82902380D01*
X187218572Y-81902380D01*
X160462380Y-78842380D02*
X160557619Y-78842380D01*
X160652857Y-78890000D01*
X160700476Y-78937619D01*
X160748095Y-79032857D01*
X160795714Y-79223333D01*
X160795714Y-79461428D01*
X160748095Y-79651904D01*
X160700476Y-79747142D01*
X160652857Y-79794761D01*
X160557619Y-79842380D01*
X160462380Y-79842380D01*
X160367142Y-79794761D01*
X160319523Y-79747142D01*
X160271904Y-79651904D01*
X160224285Y-79461428D01*
X160224285Y-79223333D01*
X160271904Y-79032857D01*
X160319523Y-78937619D01*
X160367142Y-78890000D01*
X160462380Y-78842380D01*
X186185952Y-105417380D02*
X185614524Y-105417380D01*
X185900238Y-105417380D02*
X185900238Y-104417380D01*
X185805000Y-104560238D01*
X185709762Y-104655476D01*
X185614524Y-104703095D01*
X187090714Y-104417380D02*
X186614524Y-104417380D01*
X186566905Y-104893571D01*
X186614524Y-104845952D01*
X186709762Y-104798333D01*
X186947857Y-104798333D01*
X187043095Y-104845952D01*
X187090714Y-104893571D01*
X187138333Y-104988809D01*
X187138333Y-105226904D01*
X187090714Y-105322142D01*
X187043095Y-105369761D01*
X186947857Y-105417380D01*
X186709762Y-105417380D01*
X186614524Y-105369761D01*
X186566905Y-105322142D01*
X177919999Y-79475714D02*
X177824761Y-79428094D01*
X177681904Y-79428094D01*
X177539047Y-79475714D01*
X177443809Y-79570952D01*
X177396190Y-79666190D01*
X177348571Y-79856666D01*
X177348571Y-79999523D01*
X177396190Y-80189999D01*
X177443809Y-80285237D01*
X177539047Y-80380475D01*
X177681904Y-80428094D01*
X177777142Y-80428094D01*
X177919999Y-80380475D01*
X177967618Y-80332856D01*
X177967618Y-79999523D01*
X177777142Y-79999523D01*
X167529523Y-105437380D02*
X166958095Y-105437380D01*
X167243809Y-105437380D02*
X167243809Y-104437380D01*
X167148571Y-104580238D01*
X167053333Y-104675476D01*
X166958095Y-104723095D01*
X168148571Y-104437380D02*
X168243809Y-104437380D01*
X168339047Y-104485000D01*
X168386666Y-104532619D01*
X168434285Y-104627857D01*
X168481904Y-104818333D01*
X168481904Y-105056428D01*
X168434285Y-105246904D01*
X168386666Y-105342142D01*
X168339047Y-105389761D01*
X168243809Y-105437380D01*
X168148571Y-105437380D01*
X168053333Y-105389761D01*
X168005714Y-105342142D01*
X167958095Y-105246904D01*
X167910476Y-105056428D01*
X167910476Y-104818333D01*
X167958095Y-104627857D01*
X168005714Y-104532619D01*
X168053333Y-104485000D01*
X168148571Y-104437380D01*
X167144285Y-68389761D02*
X167287142Y-68437380D01*
X167525238Y-68437380D01*
X167620476Y-68389761D01*
X167668095Y-68342142D01*
X167715714Y-68246904D01*
X167715714Y-68151666D01*
X167668095Y-68056428D01*
X167620476Y-68008809D01*
X167525238Y-67961190D01*
X167334761Y-67913571D01*
X167239523Y-67865952D01*
X167191904Y-67818333D01*
X167144285Y-67723095D01*
X167144285Y-67627857D01*
X167191904Y-67532619D01*
X167239523Y-67485000D01*
X167334761Y-67437380D01*
X167572857Y-67437380D01*
X167715714Y-67485000D01*
X168144285Y-68437380D02*
X168144285Y-67437380D01*
X168144285Y-67913571D02*
X168715714Y-67913571D01*
X168715714Y-68437380D02*
X168715714Y-67437380D01*
X169191904Y-68437380D02*
X169191904Y-67437380D01*
X169668095Y-67913571D02*
X170001428Y-67913571D01*
X170144285Y-68437380D02*
X169668095Y-68437380D01*
X169668095Y-67437380D01*
X170144285Y-67437380D01*
X171049047Y-68437380D02*
X170572857Y-68437380D01*
X170572857Y-67437380D01*
X171382380Y-68437380D02*
X171382380Y-67437380D01*
X171620476Y-67437380D01*
X171763333Y-67485000D01*
X171858571Y-67580238D01*
X171906190Y-67675476D01*
X171953809Y-67865952D01*
X171953809Y-68008809D01*
X171906190Y-68199285D01*
X171858571Y-68294523D01*
X171763333Y-68389761D01*
X171620476Y-68437380D01*
X171382380Y-68437380D01*
X173001428Y-67437380D02*
X173572857Y-67437380D01*
X173287142Y-68437380D02*
X173287142Y-67437380D01*
X173906190Y-67913571D02*
X174239523Y-67913571D01*
X174382380Y-68437380D02*
X173906190Y-68437380D01*
X173906190Y-67437380D01*
X174382380Y-67437380D01*
X174810952Y-67913571D02*
X175144285Y-67913571D01*
X175287142Y-68437380D02*
X174810952Y-68437380D01*
X174810952Y-67437380D01*
X175287142Y-67437380D01*
X175715714Y-68437380D02*
X175715714Y-67437380D01*
X176287142Y-68437380D01*
X176287142Y-67437380D01*
X176715714Y-68389761D02*
X176858571Y-68437380D01*
X177096666Y-68437380D01*
X177191904Y-68389761D01*
X177239523Y-68342142D01*
X177287142Y-68246904D01*
X177287142Y-68151666D01*
X177239523Y-68056428D01*
X177191904Y-68008809D01*
X177096666Y-67961190D01*
X176906190Y-67913571D01*
X176810952Y-67865952D01*
X176763333Y-67818333D01*
X176715714Y-67723095D01*
X176715714Y-67627857D01*
X176763333Y-67532619D01*
X176810952Y-67485000D01*
X176906190Y-67437380D01*
X177144285Y-67437380D01*
X177287142Y-67485000D01*
X177906190Y-67961190D02*
X177906190Y-68437380D01*
X177572857Y-67437380D02*
X177906190Y-67961190D01*
X178239523Y-67437380D01*
X179191904Y-67437380D02*
X179525238Y-68437380D01*
X179858571Y-67437380D01*
X180144285Y-67532619D02*
X180191904Y-67485000D01*
X180287142Y-67437380D01*
X180525238Y-67437380D01*
X180620476Y-67485000D01*
X180668095Y-67532619D01*
X180715714Y-67627857D01*
X180715714Y-67723095D01*
X180668095Y-67865952D01*
X180096666Y-68437380D01*
X180715714Y-68437380D01*
X166525238Y-69952142D02*
X166477619Y-69999761D01*
X166334761Y-70047380D01*
X166239523Y-70047380D01*
X166096666Y-69999761D01*
X166001428Y-69904523D01*
X165953809Y-69809285D01*
X165906190Y-69618809D01*
X165906190Y-69475952D01*
X165953809Y-69285476D01*
X166001428Y-69190238D01*
X166096666Y-69095000D01*
X166239523Y-69047380D01*
X166334761Y-69047380D01*
X166477619Y-69095000D01*
X166525238Y-69142619D01*
X166953809Y-70047380D02*
X166953809Y-69380714D01*
X166953809Y-69571190D02*
X167001428Y-69475952D01*
X167049047Y-69428333D01*
X167144285Y-69380714D01*
X167239523Y-69380714D01*
X167572857Y-70047380D02*
X167572857Y-69380714D01*
X167572857Y-69047380D02*
X167525238Y-69095000D01*
X167572857Y-69142619D01*
X167620476Y-69095000D01*
X167572857Y-69047380D01*
X167572857Y-69142619D01*
X168001428Y-69999761D02*
X168096666Y-70047380D01*
X168287142Y-70047380D01*
X168382380Y-69999761D01*
X168430000Y-69904523D01*
X168430000Y-69856904D01*
X168382380Y-69761666D01*
X168287142Y-69714047D01*
X168144285Y-69714047D01*
X168049047Y-69666428D01*
X168001428Y-69571190D01*
X168001428Y-69523571D01*
X168049047Y-69428333D01*
X168144285Y-69380714D01*
X168287142Y-69380714D01*
X168382380Y-69428333D01*
X168715714Y-69380714D02*
X169096666Y-69380714D01*
X168858571Y-69047380D02*
X168858571Y-69904523D01*
X168906190Y-69999761D01*
X169001428Y-70047380D01*
X169096666Y-70047380D01*
X169430000Y-70047380D02*
X169430000Y-69380714D01*
X169430000Y-69047380D02*
X169382380Y-69095000D01*
X169430000Y-69142619D01*
X169477619Y-69095000D01*
X169430000Y-69047380D01*
X169430000Y-69142619D01*
X170334761Y-70047380D02*
X170334761Y-69523571D01*
X170287142Y-69428333D01*
X170191904Y-69380714D01*
X170001428Y-69380714D01*
X169906190Y-69428333D01*
X170334761Y-69999761D02*
X170239523Y-70047380D01*
X170001428Y-70047380D01*
X169906190Y-69999761D01*
X169858571Y-69904523D01*
X169858571Y-69809285D01*
X169906190Y-69714047D01*
X170001428Y-69666428D01*
X170239523Y-69666428D01*
X170334761Y-69618809D01*
X170810952Y-69380714D02*
X170810952Y-70047380D01*
X170810952Y-69475952D02*
X170858571Y-69428333D01*
X170953809Y-69380714D01*
X171096666Y-69380714D01*
X171191904Y-69428333D01*
X171239523Y-69523571D01*
X171239523Y-70047380D01*
X173049047Y-69952142D02*
X173001428Y-69999761D01*
X172858571Y-70047380D01*
X172763333Y-70047380D01*
X172620476Y-69999761D01*
X172525238Y-69904523D01*
X172477619Y-69809285D01*
X172430000Y-69618809D01*
X172430000Y-69475952D01*
X172477619Y-69285476D01*
X172525238Y-69190238D01*
X172620476Y-69095000D01*
X172763333Y-69047380D01*
X172858571Y-69047380D01*
X173001428Y-69095000D01*
X173049047Y-69142619D01*
X173906190Y-70047380D02*
X173906190Y-69523571D01*
X173858571Y-69428333D01*
X173763333Y-69380714D01*
X173572857Y-69380714D01*
X173477619Y-69428333D01*
X173906190Y-69999761D02*
X173810952Y-70047380D01*
X173572857Y-70047380D01*
X173477619Y-69999761D01*
X173430000Y-69904523D01*
X173430000Y-69809285D01*
X173477619Y-69714047D01*
X173572857Y-69666428D01*
X173810952Y-69666428D01*
X173906190Y-69618809D01*
X174334761Y-69999761D02*
X174430000Y-70047380D01*
X174620476Y-70047380D01*
X174715714Y-69999761D01*
X174763333Y-69904523D01*
X174763333Y-69856904D01*
X174715714Y-69761666D01*
X174620476Y-69714047D01*
X174477619Y-69714047D01*
X174382380Y-69666428D01*
X174334761Y-69571190D01*
X174334761Y-69523571D01*
X174382380Y-69428333D01*
X174477619Y-69380714D01*
X174620476Y-69380714D01*
X174715714Y-69428333D01*
X175049047Y-69380714D02*
X175430000Y-69380714D01*
X175191904Y-69047380D02*
X175191904Y-69904523D01*
X175239523Y-69999761D01*
X175334761Y-70047380D01*
X175430000Y-70047380D01*
X175763333Y-70047380D02*
X175763333Y-69380714D01*
X175763333Y-69571190D02*
X175810952Y-69475952D01*
X175858571Y-69428333D01*
X175953809Y-69380714D01*
X176049047Y-69380714D01*
X176525238Y-70047380D02*
X176430000Y-69999761D01*
X176382380Y-69952142D01*
X176334761Y-69856904D01*
X176334761Y-69571190D01*
X176382380Y-69475952D01*
X176430000Y-69428333D01*
X176525238Y-69380714D01*
X176668095Y-69380714D01*
X176763333Y-69428333D01*
X176810952Y-69475952D01*
X176858571Y-69571190D01*
X176858571Y-69856904D01*
X176810952Y-69952142D01*
X176763333Y-69999761D01*
X176668095Y-70047380D01*
X176525238Y-70047380D01*
X178525238Y-70047380D02*
X178049047Y-70047380D01*
X178049047Y-69047380D01*
X179287142Y-70047380D02*
X179287142Y-69523571D01*
X179239523Y-69428333D01*
X179144285Y-69380714D01*
X178953809Y-69380714D01*
X178858571Y-69428333D01*
X179287142Y-69999761D02*
X179191904Y-70047380D01*
X178953809Y-70047380D01*
X178858571Y-69999761D01*
X178810952Y-69904523D01*
X178810952Y-69809285D01*
X178858571Y-69714047D01*
X178953809Y-69666428D01*
X179191904Y-69666428D01*
X179287142Y-69618809D01*
X180191904Y-69380714D02*
X180191904Y-70190238D01*
X180144285Y-70285476D01*
X180096666Y-70333095D01*
X180001428Y-70380714D01*
X179858571Y-70380714D01*
X179763333Y-70333095D01*
X180191904Y-69999761D02*
X180096666Y-70047380D01*
X179906190Y-70047380D01*
X179810952Y-69999761D01*
X179763333Y-69952142D01*
X179715714Y-69856904D01*
X179715714Y-69571190D01*
X179763333Y-69475952D01*
X179810952Y-69428333D01*
X179906190Y-69380714D01*
X180096666Y-69380714D01*
X180191904Y-69428333D01*
X180810952Y-70047380D02*
X180715714Y-69999761D01*
X180668095Y-69952142D01*
X180620476Y-69856904D01*
X180620476Y-69571190D01*
X180668095Y-69475952D01*
X180715714Y-69428333D01*
X180810952Y-69380714D01*
X180953809Y-69380714D01*
X181049047Y-69428333D01*
X181096666Y-69475952D01*
X181144285Y-69571190D01*
X181144285Y-69856904D01*
X181096666Y-69952142D01*
X181049047Y-69999761D01*
X180953809Y-70047380D01*
X180810952Y-70047380D01*
X181525238Y-69999761D02*
X181620476Y-70047380D01*
X181810952Y-70047380D01*
X181906190Y-69999761D01*
X181953809Y-69904523D01*
X181953809Y-69856904D01*
X181906190Y-69761666D01*
X181810952Y-69714047D01*
X181668095Y-69714047D01*
X181572857Y-69666428D01*
X181525238Y-69571190D01*
X181525238Y-69523571D01*
X181572857Y-69428333D01*
X181668095Y-69380714D01*
X181810952Y-69380714D01*
X181906190Y-69428333D01*
X167434285Y-93912380D02*
X167243809Y-93912380D01*
X167148570Y-93960000D01*
X167100951Y-94007619D01*
X167005713Y-94150476D01*
X166958094Y-94340952D01*
X166958094Y-94721904D01*
X167005713Y-94817142D01*
X167053332Y-94864761D01*
X167148570Y-94912380D01*
X167339047Y-94912380D01*
X167434285Y-94864761D01*
X167481904Y-94817142D01*
X167529523Y-94721904D01*
X167529523Y-94483809D01*
X167481904Y-94388571D01*
X167434285Y-94340952D01*
X167339047Y-94293333D01*
X167148570Y-94293333D01*
X167053332Y-94340952D01*
X167005713Y-94388571D01*
X166958094Y-94483809D01*
X184504285Y-77471428D02*
X185266190Y-77471428D01*
X184885238Y-77852380D02*
X184885238Y-77090476D01*
X186218571Y-76852380D02*
X185742380Y-76852380D01*
X185694761Y-77328571D01*
X185742380Y-77280952D01*
X185837619Y-77233333D01*
X186075714Y-77233333D01*
X186170952Y-77280952D01*
X186218571Y-77328571D01*
X186266190Y-77423809D01*
X186266190Y-77661904D01*
X186218571Y-77757142D01*
X186170952Y-77804761D01*
X186075714Y-77852380D01*
X185837619Y-77852380D01*
X185742380Y-77804761D01*
X185694761Y-77757142D01*
X186551904Y-76852380D02*
X186885238Y-77852380D01*
X187218571Y-76852380D01*
X166910475Y-86487380D02*
X167529523Y-86487380D01*
X167196189Y-86868333D01*
X167339047Y-86868333D01*
X167434285Y-86915952D01*
X167481904Y-86963571D01*
X167529523Y-87058809D01*
X167529523Y-87296904D01*
X167481904Y-87392142D01*
X167434285Y-87439761D01*
X167339047Y-87487380D01*
X167053332Y-87487380D01*
X166958094Y-87439761D01*
X166910475Y-87392142D01*
X186185952Y-107967380D02*
X185614524Y-107967380D01*
X185900238Y-107967380D02*
X185900238Y-106967380D01*
X185805000Y-107110238D01*
X185709762Y-107205476D01*
X185614524Y-107253095D01*
X187043095Y-107300714D02*
X187043095Y-107967380D01*
X186805000Y-106919761D02*
X186566905Y-107634047D01*
X187185952Y-107634047D01*
X175090000Y-126061428D02*
X175851904Y-126061428D01*
X175470952Y-126442380D02*
X175470952Y-125680476D01*
X176232857Y-125442380D02*
X176851904Y-125442380D01*
X176518571Y-125823333D01*
X176661428Y-125823333D01*
X176756666Y-125870952D01*
X176804285Y-125918571D01*
X176851904Y-126013809D01*
X176851904Y-126251904D01*
X176804285Y-126347142D01*
X176756666Y-126394761D01*
X176661428Y-126442380D01*
X176375714Y-126442380D01*
X176280476Y-126394761D01*
X176232857Y-126347142D01*
X177280476Y-126347142D02*
X177328095Y-126394761D01*
X177280476Y-126442380D01*
X177232857Y-126394761D01*
X177280476Y-126347142D01*
X177280476Y-126442380D01*
X177661428Y-125442380D02*
X178280476Y-125442380D01*
X177947142Y-125823333D01*
X178090000Y-125823333D01*
X178185238Y-125870952D01*
X178232857Y-125918571D01*
X178280476Y-126013809D01*
X178280476Y-126251904D01*
X178232857Y-126347142D01*
X178185238Y-126394761D01*
X178090000Y-126442380D01*
X177804285Y-126442380D01*
X177709047Y-126394761D01*
X177661428Y-126347142D01*
X178566190Y-125442380D02*
X178899523Y-126442380D01*
X179232857Y-125442380D01*
X167529523Y-82437380D02*
X166958094Y-82437380D01*
X167243809Y-82437380D02*
X167243809Y-81437380D01*
X167148570Y-81580238D01*
X167053332Y-81675476D01*
X166958094Y-81723095D01*
X167148570Y-99615952D02*
X167053332Y-99568333D01*
X167005713Y-99520714D01*
X166958094Y-99425476D01*
X166958094Y-99377857D01*
X167005713Y-99282619D01*
X167053332Y-99235000D01*
X167148570Y-99187380D01*
X167339047Y-99187380D01*
X167434285Y-99235000D01*
X167481904Y-99282619D01*
X167529523Y-99377857D01*
X167529523Y-99425476D01*
X167481904Y-99520714D01*
X167434285Y-99568333D01*
X167339047Y-99615952D01*
X167148570Y-99615952D01*
X167053332Y-99663571D01*
X167005713Y-99711190D01*
X166958094Y-99806428D01*
X166958094Y-99996904D01*
X167005713Y-100092142D01*
X167053332Y-100139761D01*
X167148570Y-100187380D01*
X167339047Y-100187380D01*
X167434285Y-100139761D01*
X167481904Y-100092142D01*
X167529523Y-99996904D01*
X167529523Y-99806428D01*
X167481904Y-99711190D01*
X167434285Y-99663571D01*
X167339047Y-99615952D01*
X167529523Y-108012380D02*
X166958095Y-108012380D01*
X167243809Y-108012380D02*
X167243809Y-107012380D01*
X167148571Y-107155238D01*
X167053333Y-107250476D01*
X166958095Y-107298095D01*
X168481904Y-108012380D02*
X167910476Y-108012380D01*
X168196190Y-108012380D02*
X168196190Y-107012380D01*
X168100952Y-107155238D01*
X168005714Y-107250476D01*
X167910476Y-107298095D01*
X160176666Y-96442380D02*
X160843333Y-96442380D01*
X160414761Y-97442380D01*
X160700476Y-89225714D02*
X160700476Y-89892380D01*
X160462380Y-88844761D02*
X160224285Y-89559047D01*
X160843333Y-89559047D01*
X160833095Y-76720000D02*
X160737857Y-76672380D01*
X160595000Y-76672380D01*
X160452143Y-76720000D01*
X160356905Y-76815238D01*
X160309286Y-76910476D01*
X160261667Y-77100952D01*
X160261667Y-77243809D01*
X160309286Y-77434285D01*
X160356905Y-77529523D01*
X160452143Y-77624761D01*
X160595000Y-77672380D01*
X160690238Y-77672380D01*
X160833095Y-77624761D01*
X160880714Y-77577142D01*
X160880714Y-77243809D01*
X160690238Y-77243809D01*
X160224285Y-83912619D02*
X160271904Y-83865000D01*
X160367142Y-83817380D01*
X160605238Y-83817380D01*
X160700476Y-83865000D01*
X160748095Y-83912619D01*
X160795714Y-84007857D01*
X160795714Y-84103095D01*
X160748095Y-84245952D01*
X160176666Y-84817380D01*
X160795714Y-84817380D01*
X176458809Y-86913333D02*
X176506428Y-86865714D01*
X176601666Y-86818094D01*
X176839761Y-86818094D01*
X176934999Y-86865714D01*
X176982618Y-86913333D01*
X177030237Y-87008571D01*
X177030237Y-87103809D01*
X176982618Y-87246666D01*
X176411190Y-87818094D01*
X177030237Y-87818094D01*
X177411190Y-86913333D02*
X177458809Y-86865714D01*
X177554047Y-86818094D01*
X177792142Y-86818094D01*
X177887380Y-86865714D01*
X177934999Y-86913333D01*
X177982618Y-87008571D01*
X177982618Y-87103809D01*
X177934999Y-87246666D01*
X177363571Y-87818094D01*
X177982618Y-87818094D01*
X167434285Y-89270714D02*
X167434285Y-89937380D01*
X167196189Y-88889761D02*
X166958094Y-89604047D01*
X167577142Y-89604047D01*
X175348570Y-77472142D02*
X176110475Y-77472142D01*
X175729523Y-77853094D02*
X175729523Y-77091190D01*
X177062856Y-76853094D02*
X176586665Y-76853094D01*
X176539046Y-77329285D01*
X176586665Y-77281666D01*
X176681904Y-77234047D01*
X176919999Y-77234047D01*
X177015237Y-77281666D01*
X177062856Y-77329285D01*
X177110475Y-77424523D01*
X177110475Y-77662618D01*
X177062856Y-77757856D01*
X177015237Y-77805475D01*
X176919999Y-77853094D01*
X176681904Y-77853094D01*
X176586665Y-77805475D01*
X176539046Y-77757856D01*
X177396189Y-76853094D02*
X177729523Y-77853094D01*
X178062856Y-76853094D01*
X177030237Y-102943094D02*
X176458809Y-102943094D01*
X176744523Y-102943094D02*
X176744523Y-101943094D01*
X176649285Y-102085952D01*
X176554047Y-102181190D01*
X176458809Y-102228809D01*
X177887380Y-101943094D02*
X177696904Y-101943094D01*
X177601666Y-101990714D01*
X177554047Y-102038333D01*
X177458809Y-102181190D01*
X177411190Y-102371666D01*
X177411190Y-102752618D01*
X177458809Y-102847856D01*
X177506428Y-102895475D01*
X177601666Y-102943094D01*
X177792142Y-102943094D01*
X177887380Y-102895475D01*
X177934999Y-102847856D01*
X177982618Y-102752618D01*
X177982618Y-102514523D01*
X177934999Y-102419285D01*
X177887380Y-102371666D01*
X177792142Y-102324047D01*
X177601666Y-102324047D01*
X177506428Y-102371666D01*
X177458809Y-102419285D01*
X177411190Y-102514523D01*
X167566904Y-76765000D02*
X167471666Y-76717380D01*
X167328809Y-76717380D01*
X167185952Y-76765000D01*
X167090714Y-76860238D01*
X167043095Y-76955476D01*
X166995476Y-77145952D01*
X166995476Y-77288809D01*
X167043095Y-77479285D01*
X167090714Y-77574523D01*
X167185952Y-77669761D01*
X167328809Y-77717380D01*
X167424047Y-77717380D01*
X167566904Y-77669761D01*
X167614523Y-77622142D01*
X167614523Y-77288809D01*
X167424047Y-77288809D01*
X177030237Y-105418094D02*
X176458809Y-105418094D01*
X176744523Y-105418094D02*
X176744523Y-104418094D01*
X176649285Y-104560952D01*
X176554047Y-104656190D01*
X176458809Y-104703809D01*
X177934999Y-104418094D02*
X177458809Y-104418094D01*
X177411190Y-104894285D01*
X177458809Y-104846666D01*
X177554047Y-104799047D01*
X177792142Y-104799047D01*
X177887380Y-104846666D01*
X177934999Y-104894285D01*
X177982618Y-104989523D01*
X177982618Y-105227618D01*
X177934999Y-105322856D01*
X177887380Y-105370475D01*
X177792142Y-105418094D01*
X177554047Y-105418094D01*
X177458809Y-105370475D01*
X177411190Y-105322856D01*
X177030237Y-100368094D02*
X176458809Y-100368094D01*
X176744523Y-100368094D02*
X176744523Y-99368094D01*
X176649285Y-99510952D01*
X176554047Y-99606190D01*
X176458809Y-99653809D01*
X177363571Y-99368094D02*
X178030237Y-99368094D01*
X177601666Y-100368094D01*
X187075714Y-79475000D02*
X186980476Y-79427380D01*
X186837619Y-79427380D01*
X186694762Y-79475000D01*
X186599524Y-79570238D01*
X186551905Y-79665476D01*
X186504286Y-79855952D01*
X186504286Y-79998809D01*
X186551905Y-80189285D01*
X186599524Y-80284523D01*
X186694762Y-80379761D01*
X186837619Y-80427380D01*
X186932857Y-80427380D01*
X187075714Y-80379761D01*
X187123333Y-80332142D01*
X187123333Y-79998809D01*
X186932857Y-79998809D01*
X160795714Y-105392380D02*
X160224286Y-105392380D01*
X160510000Y-105392380D02*
X160510000Y-104392380D01*
X160414762Y-104535238D01*
X160319524Y-104630476D01*
X160224286Y-104678095D01*
X161414762Y-104392380D02*
X161510000Y-104392380D01*
X161605238Y-104440000D01*
X161652857Y-104487619D01*
X161700476Y-104582857D01*
X161748095Y-104773333D01*
X161748095Y-105011428D01*
X161700476Y-105201904D01*
X161652857Y-105297142D01*
X161605238Y-105344761D01*
X161510000Y-105392380D01*
X161414762Y-105392380D01*
X161319524Y-105344761D01*
X161271905Y-105297142D01*
X161224286Y-105201904D01*
X161176667Y-105011428D01*
X161176667Y-104773333D01*
X161224286Y-104582857D01*
X161271905Y-104487619D01*
X161319524Y-104440000D01*
X161414762Y-104392380D01*
X176458809Y-91938333D02*
X176506428Y-91890714D01*
X176601666Y-91843094D01*
X176839761Y-91843094D01*
X176934999Y-91890714D01*
X176982618Y-91938333D01*
X177030237Y-92033571D01*
X177030237Y-92128809D01*
X176982618Y-92271666D01*
X176411190Y-92843094D01*
X177030237Y-92843094D01*
X177649285Y-91843094D02*
X177744523Y-91843094D01*
X177839761Y-91890714D01*
X177887380Y-91938333D01*
X177934999Y-92033571D01*
X177982618Y-92224047D01*
X177982618Y-92462142D01*
X177934999Y-92652618D01*
X177887380Y-92747856D01*
X177839761Y-92795475D01*
X177744523Y-92843094D01*
X177649285Y-92843094D01*
X177554047Y-92795475D01*
X177506428Y-92747856D01*
X177458809Y-92652618D01*
X177411190Y-92462142D01*
X177411190Y-92224047D01*
X177458809Y-92033571D01*
X177506428Y-91938333D01*
X177554047Y-91890714D01*
X177649285Y-91843094D01*
X186185952Y-95192380D02*
X185614524Y-95192380D01*
X185900238Y-95192380D02*
X185900238Y-94192380D01*
X185805000Y-94335238D01*
X185709762Y-94430476D01*
X185614524Y-94478095D01*
X186662143Y-95192380D02*
X186852619Y-95192380D01*
X186947857Y-95144761D01*
X186995476Y-95097142D01*
X187090714Y-94954285D01*
X187138333Y-94763809D01*
X187138333Y-94382857D01*
X187090714Y-94287619D01*
X187043095Y-94240000D01*
X186947857Y-94192380D01*
X186757381Y-94192380D01*
X186662143Y-94240000D01*
X186614524Y-94287619D01*
X186566905Y-94382857D01*
X186566905Y-94620952D01*
X186614524Y-94716190D01*
X186662143Y-94763809D01*
X186757381Y-94811428D01*
X186947857Y-94811428D01*
X187043095Y-94763809D01*
X187090714Y-94716190D01*
X187138333Y-94620952D01*
X167196189Y-78887380D02*
X167291428Y-78887380D01*
X167386666Y-78935000D01*
X167434285Y-78982619D01*
X167481904Y-79077857D01*
X167529523Y-79268333D01*
X167529523Y-79506428D01*
X167481904Y-79696904D01*
X167434285Y-79792142D01*
X167386666Y-79839761D01*
X167291428Y-79887380D01*
X167196189Y-79887380D01*
X167100951Y-79839761D01*
X167053332Y-79792142D01*
X167005713Y-79696904D01*
X166958094Y-79506428D01*
X166958094Y-79268333D01*
X167005713Y-79077857D01*
X167053332Y-78982619D01*
X167100951Y-78935000D01*
X167196189Y-78887380D01*
X166958094Y-83957619D02*
X167005713Y-83910000D01*
X167100951Y-83862380D01*
X167339047Y-83862380D01*
X167434285Y-83910000D01*
X167481904Y-83957619D01*
X167529523Y-84052857D01*
X167529523Y-84148095D01*
X167481904Y-84290952D01*
X166910475Y-84862380D01*
X167529523Y-84862380D01*
X172461904Y-125490000D02*
X172366666Y-125442380D01*
X172223809Y-125442380D01*
X172080952Y-125490000D01*
X171985714Y-125585238D01*
X171938095Y-125680476D01*
X171890476Y-125870952D01*
X171890476Y-126013809D01*
X171938095Y-126204285D01*
X171985714Y-126299523D01*
X172080952Y-126394761D01*
X172223809Y-126442380D01*
X172319047Y-126442380D01*
X172461904Y-126394761D01*
X172509523Y-126347142D01*
X172509523Y-126013809D01*
X172319047Y-126013809D01*
X160176666Y-86442380D02*
X160795714Y-86442380D01*
X160462380Y-86823333D01*
X160605238Y-86823333D01*
X160700476Y-86870952D01*
X160748095Y-86918571D01*
X160795714Y-87013809D01*
X160795714Y-87251904D01*
X160748095Y-87347142D01*
X160700476Y-87394761D01*
X160605238Y-87442380D01*
X160319523Y-87442380D01*
X160224285Y-87394761D01*
X160176666Y-87347142D01*
X186185952Y-102942380D02*
X185614524Y-102942380D01*
X185900238Y-102942380D02*
X185900238Y-101942380D01*
X185805000Y-102085238D01*
X185709762Y-102180476D01*
X185614524Y-102228095D01*
X187043095Y-101942380D02*
X186852619Y-101942380D01*
X186757381Y-101990000D01*
X186709762Y-102037619D01*
X186614524Y-102180476D01*
X186566905Y-102370952D01*
X186566905Y-102751904D01*
X186614524Y-102847142D01*
X186662143Y-102894761D01*
X186757381Y-102942380D01*
X186947857Y-102942380D01*
X187043095Y-102894761D01*
X187090714Y-102847142D01*
X187138333Y-102751904D01*
X187138333Y-102513809D01*
X187090714Y-102418571D01*
X187043095Y-102370952D01*
X186947857Y-102323333D01*
X186757381Y-102323333D01*
X186662143Y-102370952D01*
X186614524Y-102418571D01*
X186566905Y-102513809D01*
X176458809Y-89488333D02*
X176506428Y-89440714D01*
X176601666Y-89393094D01*
X176839761Y-89393094D01*
X176934999Y-89440714D01*
X176982618Y-89488333D01*
X177030237Y-89583571D01*
X177030237Y-89678809D01*
X176982618Y-89821666D01*
X176411190Y-90393094D01*
X177030237Y-90393094D01*
X177982618Y-90393094D02*
X177411190Y-90393094D01*
X177696904Y-90393094D02*
X177696904Y-89393094D01*
X177601666Y-89535952D01*
X177506428Y-89631190D01*
X177411190Y-89678809D01*
X160795714Y-82392380D02*
X160224285Y-82392380D01*
X160510000Y-82392380D02*
X160510000Y-81392380D01*
X160414761Y-81535238D01*
X160319523Y-81630476D01*
X160224285Y-81678095D01*
X186185952Y-97792380D02*
X185614524Y-97792380D01*
X185900238Y-97792380D02*
X185900238Y-96792380D01*
X185805000Y-96935238D01*
X185709762Y-97030476D01*
X185614524Y-97078095D01*
X186757381Y-97220952D02*
X186662143Y-97173333D01*
X186614524Y-97125714D01*
X186566905Y-97030476D01*
X186566905Y-96982857D01*
X186614524Y-96887619D01*
X186662143Y-96840000D01*
X186757381Y-96792380D01*
X186947857Y-96792380D01*
X187043095Y-96840000D01*
X187090714Y-96887619D01*
X187138333Y-96982857D01*
X187138333Y-97030476D01*
X187090714Y-97125714D01*
X187043095Y-97173333D01*
X186947857Y-97220952D01*
X186757381Y-97220952D01*
X186662143Y-97268571D01*
X186614524Y-97316190D01*
X186566905Y-97411428D01*
X186566905Y-97601904D01*
X186614524Y-97697142D01*
X186662143Y-97744761D01*
X186757381Y-97792380D01*
X186947857Y-97792380D01*
X187043095Y-97744761D01*
X187090714Y-97697142D01*
X187138333Y-97601904D01*
X187138333Y-97411428D01*
X187090714Y-97316190D01*
X187043095Y-97268571D01*
X186947857Y-97220952D01*
X167053332Y-102837380D02*
X167243809Y-102837380D01*
X167339047Y-102789761D01*
X167386666Y-102742142D01*
X167481904Y-102599285D01*
X167529523Y-102408809D01*
X167529523Y-102027857D01*
X167481904Y-101932619D01*
X167434285Y-101885000D01*
X167339047Y-101837380D01*
X167148570Y-101837380D01*
X167053332Y-101885000D01*
X167005713Y-101932619D01*
X166958094Y-102027857D01*
X166958094Y-102265952D01*
X167005713Y-102361190D01*
X167053332Y-102408809D01*
X167148570Y-102456428D01*
X167339047Y-102456428D01*
X167434285Y-102408809D01*
X167481904Y-102361190D01*
X167529523Y-102265952D01*
X160748095Y-91642380D02*
X160271904Y-91642380D01*
X160224285Y-92118571D01*
X160271904Y-92070952D01*
X160367142Y-92023333D01*
X160605238Y-92023333D01*
X160700476Y-92070952D01*
X160748095Y-92118571D01*
X160795714Y-92213809D01*
X160795714Y-92451904D01*
X160748095Y-92547142D01*
X160700476Y-92594761D01*
X160605238Y-92642380D01*
X160367142Y-92642380D01*
X160271904Y-92594761D01*
X160224285Y-92547142D01*
X166910475Y-96487380D02*
X167577142Y-96487380D01*
X167148570Y-97487380D01*
X173920000Y-82522142D02*
X174681904Y-82522142D01*
X174300952Y-82903094D02*
X174300952Y-82141190D01*
X175062857Y-81903094D02*
X175681904Y-81903094D01*
X175348571Y-82284047D01*
X175491428Y-82284047D01*
X175586666Y-82331666D01*
X175634285Y-82379285D01*
X175681904Y-82474523D01*
X175681904Y-82712618D01*
X175634285Y-82807856D01*
X175586666Y-82855475D01*
X175491428Y-82903094D01*
X175205714Y-82903094D01*
X175110476Y-82855475D01*
X175062857Y-82807856D01*
X176110476Y-82807856D02*
X176158095Y-82855475D01*
X176110476Y-82903094D01*
X176062857Y-82855475D01*
X176110476Y-82807856D01*
X176110476Y-82903094D01*
X176491428Y-81903094D02*
X177110476Y-81903094D01*
X176777142Y-82284047D01*
X176920000Y-82284047D01*
X177015238Y-82331666D01*
X177062857Y-82379285D01*
X177110476Y-82474523D01*
X177110476Y-82712618D01*
X177062857Y-82807856D01*
X177015238Y-82855475D01*
X176920000Y-82903094D01*
X176634285Y-82903094D01*
X176539047Y-82855475D01*
X176491428Y-82807856D01*
X177396190Y-81903094D02*
X177729523Y-82903094D01*
X178062857Y-81903094D01*
X160414761Y-99570952D02*
X160319523Y-99523333D01*
X160271904Y-99475714D01*
X160224285Y-99380476D01*
X160224285Y-99332857D01*
X160271904Y-99237619D01*
X160319523Y-99190000D01*
X160414761Y-99142380D01*
X160605238Y-99142380D01*
X160700476Y-99190000D01*
X160748095Y-99237619D01*
X160795714Y-99332857D01*
X160795714Y-99380476D01*
X160748095Y-99475714D01*
X160700476Y-99523333D01*
X160605238Y-99570952D01*
X160414761Y-99570952D01*
X160319523Y-99618571D01*
X160271904Y-99666190D01*
X160224285Y-99761428D01*
X160224285Y-99951904D01*
X160271904Y-100047142D01*
X160319523Y-100094761D01*
X160414761Y-100142380D01*
X160605238Y-100142380D01*
X160700476Y-100094761D01*
X160748095Y-100047142D01*
X160795714Y-99951904D01*
X160795714Y-99761428D01*
X160748095Y-99666190D01*
X160700476Y-99618571D01*
X160605238Y-99570952D01*
X185614524Y-91937619D02*
X185662143Y-91890000D01*
X185757381Y-91842380D01*
X185995476Y-91842380D01*
X186090714Y-91890000D01*
X186138333Y-91937619D01*
X186185952Y-92032857D01*
X186185952Y-92128095D01*
X186138333Y-92270952D01*
X185566905Y-92842380D01*
X186185952Y-92842380D01*
X186805000Y-91842380D02*
X186900238Y-91842380D01*
X186995476Y-91890000D01*
X187043095Y-91937619D01*
X187090714Y-92032857D01*
X187138333Y-92223333D01*
X187138333Y-92461428D01*
X187090714Y-92651904D01*
X187043095Y-92747142D01*
X186995476Y-92794761D01*
X186900238Y-92842380D01*
X186805000Y-92842380D01*
X186709762Y-92794761D01*
X186662143Y-92747142D01*
X186614524Y-92651904D01*
X186566905Y-92461428D01*
X186566905Y-92223333D01*
X186614524Y-92032857D01*
X186662143Y-91937619D01*
X186709762Y-91890000D01*
X186805000Y-91842380D01*
X186185952Y-100367380D02*
X185614524Y-100367380D01*
X185900238Y-100367380D02*
X185900238Y-99367380D01*
X185805000Y-99510238D01*
X185709762Y-99605476D01*
X185614524Y-99653095D01*
X186519286Y-99367380D02*
X187185952Y-99367380D01*
X186757381Y-100367380D01*
X176458809Y-84488333D02*
X176506428Y-84440714D01*
X176601666Y-84393094D01*
X176839761Y-84393094D01*
X176934999Y-84440714D01*
X176982618Y-84488333D01*
X177030237Y-84583571D01*
X177030237Y-84678809D01*
X176982618Y-84821666D01*
X176411190Y-85393094D01*
X177030237Y-85393094D01*
X177363571Y-84393094D02*
X177982618Y-84393094D01*
X177649285Y-84774047D01*
X177792142Y-84774047D01*
X177887380Y-84821666D01*
X177934999Y-84869285D01*
X177982618Y-84964523D01*
X177982618Y-85202618D01*
X177934999Y-85297856D01*
X177887380Y-85345475D01*
X177792142Y-85393094D01*
X177506428Y-85393094D01*
X177411190Y-85345475D01*
X177363571Y-85297856D01*
X160795714Y-107967380D02*
X160224286Y-107967380D01*
X160510000Y-107967380D02*
X160510000Y-106967380D01*
X160414762Y-107110238D01*
X160319524Y-107205476D01*
X160224286Y-107253095D01*
X161748095Y-107967380D02*
X161176667Y-107967380D01*
X161462381Y-107967380D02*
X161462381Y-106967380D01*
X161367143Y-107110238D01*
X161271905Y-107205476D01*
X161176667Y-107253095D01*
X172338333Y-90901666D02*
X172338333Y-91473094D01*
X171338333Y-91187380D02*
X172338333Y-91187380D01*
X171862142Y-91806428D02*
X171862142Y-92139761D01*
X171338333Y-92282618D02*
X171338333Y-91806428D01*
X172338333Y-91806428D01*
X172338333Y-92282618D01*
X171862142Y-92711190D02*
X171862142Y-93044523D01*
X171338333Y-93187380D02*
X171338333Y-92711190D01*
X172338333Y-92711190D01*
X172338333Y-93187380D01*
X171338333Y-93615952D02*
X172338333Y-93615952D01*
X171338333Y-94187380D01*
X172338333Y-94187380D01*
X171385952Y-94615952D02*
X171338333Y-94758809D01*
X171338333Y-94996904D01*
X171385952Y-95092142D01*
X171433571Y-95139761D01*
X171528809Y-95187380D01*
X171624047Y-95187380D01*
X171719285Y-95139761D01*
X171766904Y-95092142D01*
X171814523Y-94996904D01*
X171862142Y-94806428D01*
X171909761Y-94711190D01*
X171957380Y-94663571D01*
X172052618Y-94615952D01*
X172147856Y-94615952D01*
X172243094Y-94663571D01*
X172290714Y-94711190D01*
X172338333Y-94806428D01*
X172338333Y-95044523D01*
X172290714Y-95187380D01*
X171814523Y-95806428D02*
X171338333Y-95806428D01*
X172338333Y-95473094D02*
X171814523Y-95806428D01*
X172338333Y-96139761D01*
X160319523Y-102792380D02*
X160510000Y-102792380D01*
X160605238Y-102744761D01*
X160652857Y-102697142D01*
X160748095Y-102554285D01*
X160795714Y-102363809D01*
X160795714Y-101982857D01*
X160748095Y-101887619D01*
X160700476Y-101840000D01*
X160605238Y-101792380D01*
X160414761Y-101792380D01*
X160319523Y-101840000D01*
X160271904Y-101887619D01*
X160224285Y-101982857D01*
X160224285Y-102220952D01*
X160271904Y-102316190D01*
X160319523Y-102363809D01*
X160414761Y-102411428D01*
X160605238Y-102411428D01*
X160700476Y-102363809D01*
X160748095Y-102316190D01*
X160795714Y-102220952D01*
X166394285Y-126141428D02*
X167156190Y-126141428D01*
X166775238Y-126522380D02*
X166775238Y-125760476D01*
X168108571Y-125522380D02*
X167632380Y-125522380D01*
X167584761Y-125998571D01*
X167632380Y-125950952D01*
X167727619Y-125903333D01*
X167965714Y-125903333D01*
X168060952Y-125950952D01*
X168108571Y-125998571D01*
X168156190Y-126093809D01*
X168156190Y-126331904D01*
X168108571Y-126427142D01*
X168060952Y-126474761D01*
X167965714Y-126522380D01*
X167727619Y-126522380D01*
X167632380Y-126474761D01*
X167584761Y-126427142D01*
X168441904Y-125522380D02*
X168775238Y-126522380D01*
X169108571Y-125522380D01*
X177030237Y-95193094D02*
X176458809Y-95193094D01*
X176744523Y-95193094D02*
X176744523Y-94193094D01*
X176649285Y-94335952D01*
X176554047Y-94431190D01*
X176458809Y-94478809D01*
X177506428Y-95193094D02*
X177696904Y-95193094D01*
X177792142Y-95145475D01*
X177839761Y-95097856D01*
X177934999Y-94954999D01*
X177982618Y-94764523D01*
X177982618Y-94383571D01*
X177934999Y-94288333D01*
X177887380Y-94240714D01*
X177792142Y-94193094D01*
X177601666Y-94193094D01*
X177506428Y-94240714D01*
X177458809Y-94288333D01*
X177411190Y-94383571D01*
X177411190Y-94621666D01*
X177458809Y-94716904D01*
X177506428Y-94764523D01*
X177601666Y-94812142D01*
X177792142Y-94812142D01*
X177887380Y-94764523D01*
X177934999Y-94716904D01*
X177982618Y-94621666D01*
X160700476Y-93867380D02*
X160510000Y-93867380D01*
X160414761Y-93915000D01*
X160367142Y-93962619D01*
X160271904Y-94105476D01*
X160224285Y-94295952D01*
X160224285Y-94676904D01*
X160271904Y-94772142D01*
X160319523Y-94819761D01*
X160414761Y-94867380D01*
X160605238Y-94867380D01*
X160700476Y-94819761D01*
X160748095Y-94772142D01*
X160795714Y-94676904D01*
X160795714Y-94438809D01*
X160748095Y-94343571D01*
X160700476Y-94295952D01*
X160605238Y-94248333D01*
X160414761Y-94248333D01*
X160319523Y-94295952D01*
X160271904Y-94343571D01*
X160224285Y-94438809D01*
X185614524Y-84487619D02*
X185662143Y-84440000D01*
X185757381Y-84392380D01*
X185995476Y-84392380D01*
X186090714Y-84440000D01*
X186138333Y-84487619D01*
X186185952Y-84582857D01*
X186185952Y-84678095D01*
X186138333Y-84820952D01*
X185566905Y-85392380D01*
X186185952Y-85392380D01*
X186519286Y-84392380D02*
X187138333Y-84392380D01*
X186805000Y-84773333D01*
X186947857Y-84773333D01*
X187043095Y-84820952D01*
X187090714Y-84868571D01*
X187138333Y-84963809D01*
X187138333Y-85201904D01*
X187090714Y-85297142D01*
X187043095Y-85344761D01*
X186947857Y-85392380D01*
X186662143Y-85392380D01*
X186566905Y-85344761D01*
X186519286Y-85297142D01*
X177030237Y-97793094D02*
X176458809Y-97793094D01*
X176744523Y-97793094D02*
X176744523Y-96793094D01*
X176649285Y-96935952D01*
X176554047Y-97031190D01*
X176458809Y-97078809D01*
X177601666Y-97221666D02*
X177506428Y-97174047D01*
X177458809Y-97126428D01*
X177411190Y-97031190D01*
X177411190Y-96983571D01*
X177458809Y-96888333D01*
X177506428Y-96840714D01*
X177601666Y-96793094D01*
X177792142Y-96793094D01*
X177887380Y-96840714D01*
X177934999Y-96888333D01*
X177982618Y-96983571D01*
X177982618Y-97031190D01*
X177934999Y-97126428D01*
X177887380Y-97174047D01*
X177792142Y-97221666D01*
X177601666Y-97221666D01*
X177506428Y-97269285D01*
X177458809Y-97316904D01*
X177411190Y-97412142D01*
X177411190Y-97602618D01*
X177458809Y-97697856D01*
X177506428Y-97745475D01*
X177601666Y-97793094D01*
X177792142Y-97793094D01*
X177887380Y-97745475D01*
X177934999Y-97697856D01*
X177982618Y-97602618D01*
X177982618Y-97412142D01*
X177934999Y-97316904D01*
X177887380Y-97269285D01*
X177792142Y-97221666D01*
X167481904Y-91687380D02*
X167005713Y-91687380D01*
X166958094Y-92163571D01*
X167005713Y-92115952D01*
X167100951Y-92068333D01*
X167339047Y-92068333D01*
X167434285Y-92115952D01*
X167481904Y-92163571D01*
X167529523Y-92258809D01*
X167529523Y-92496904D01*
X167481904Y-92592142D01*
X167434285Y-92639761D01*
X167339047Y-92687380D01*
X167100951Y-92687380D01*
X167005713Y-92639761D01*
X166958094Y-92592142D01*
%TO.C,H4*%
X149448095Y-128952380D02*
X149448095Y-127952380D01*
X149448095Y-128428571D02*
X150019523Y-128428571D01*
X150019523Y-128952380D02*
X150019523Y-127952380D01*
X150924285Y-128285714D02*
X150924285Y-128952380D01*
X150686190Y-127904761D02*
X150448095Y-128619047D01*
X151067142Y-128619047D01*
%TO.C,J5*%
X171721666Y-114577380D02*
X171721666Y-115291666D01*
X171674047Y-115434523D01*
X171578809Y-115529761D01*
X171435952Y-115577380D01*
X171340714Y-115577380D01*
X172674047Y-114577380D02*
X172197857Y-114577380D01*
X172150238Y-115053571D01*
X172197857Y-115005952D01*
X172293095Y-114958333D01*
X172531190Y-114958333D01*
X172626428Y-115005952D01*
X172674047Y-115053571D01*
X172721666Y-115148809D01*
X172721666Y-115386904D01*
X172674047Y-115482142D01*
X172626428Y-115529761D01*
X172531190Y-115577380D01*
X172293095Y-115577380D01*
X172197857Y-115529761D01*
X172150238Y-115482142D01*
%TO.C,H3*%
X193898095Y-128952380D02*
X193898095Y-127952380D01*
X193898095Y-128428571D02*
X194469523Y-128428571D01*
X194469523Y-128952380D02*
X194469523Y-127952380D01*
X194850476Y-127952380D02*
X195469523Y-127952380D01*
X195136190Y-128333333D01*
X195279047Y-128333333D01*
X195374285Y-128380952D01*
X195421904Y-128428571D01*
X195469523Y-128523809D01*
X195469523Y-128761904D01*
X195421904Y-128857142D01*
X195374285Y-128904761D01*
X195279047Y-128952380D01*
X194993333Y-128952380D01*
X194898095Y-128904761D01*
X194850476Y-128857142D01*
%TO.C,H2*%
X193898095Y-73012380D02*
X193898095Y-72012380D01*
X193898095Y-72488571D02*
X194469523Y-72488571D01*
X194469523Y-73012380D02*
X194469523Y-72012380D01*
X194898095Y-72107619D02*
X194945714Y-72060000D01*
X195040952Y-72012380D01*
X195279047Y-72012380D01*
X195374285Y-72060000D01*
X195421904Y-72107619D01*
X195469523Y-72202857D01*
X195469523Y-72298095D01*
X195421904Y-72440952D01*
X194850476Y-73012380D01*
X195469523Y-73012380D01*
%TO.C,J2*%
X180036666Y-73707380D02*
X180036666Y-74421666D01*
X179989047Y-74564523D01*
X179893809Y-74659761D01*
X179750952Y-74707380D01*
X179655714Y-74707380D01*
X180465238Y-73802619D02*
X180512857Y-73755000D01*
X180608095Y-73707380D01*
X180846190Y-73707380D01*
X180941428Y-73755000D01*
X180989047Y-73802619D01*
X181036666Y-73897857D01*
X181036666Y-73993095D01*
X180989047Y-74135952D01*
X180417619Y-74707380D01*
X181036666Y-74707380D01*
%TO.C,J3*%
X154907857Y-73707380D02*
X154907857Y-74421666D01*
X154860238Y-74564523D01*
X154765000Y-74659761D01*
X154622143Y-74707380D01*
X154526905Y-74707380D01*
X155288810Y-73707380D02*
X155907857Y-73707380D01*
X155574524Y-74088333D01*
X155717381Y-74088333D01*
X155812619Y-74135952D01*
X155860238Y-74183571D01*
X155907857Y-74278809D01*
X155907857Y-74516904D01*
X155860238Y-74612142D01*
X155812619Y-74659761D01*
X155717381Y-74707380D01*
X155431667Y-74707380D01*
X155336429Y-74659761D01*
X155288810Y-74612142D01*
%TO.C,H1*%
X149448095Y-73012380D02*
X149448095Y-72012380D01*
X149448095Y-72488571D02*
X150019523Y-72488571D01*
X150019523Y-73012380D02*
X150019523Y-72012380D01*
X151019523Y-73012380D02*
X150448095Y-73012380D01*
X150733809Y-73012380D02*
X150733809Y-72012380D01*
X150638571Y-72155238D01*
X150543333Y-72250476D01*
X150448095Y-72298095D01*
%TO.C,J6*%
X166991666Y-114497380D02*
X166991666Y-115211666D01*
X166944047Y-115354523D01*
X166848809Y-115449761D01*
X166705952Y-115497380D01*
X166610714Y-115497380D01*
X167896428Y-114497380D02*
X167705952Y-114497380D01*
X167610714Y-114545000D01*
X167563095Y-114592619D01*
X167467857Y-114735476D01*
X167420238Y-114925952D01*
X167420238Y-115306904D01*
X167467857Y-115402142D01*
X167515476Y-115449761D01*
X167610714Y-115497380D01*
X167801190Y-115497380D01*
X167896428Y-115449761D01*
X167944047Y-115402142D01*
X167991666Y-115306904D01*
X167991666Y-115068809D01*
X167944047Y-114973571D01*
X167896428Y-114925952D01*
X167801190Y-114878333D01*
X167610714Y-114878333D01*
X167515476Y-114925952D01*
X167467857Y-114973571D01*
X167420238Y-115068809D01*
%TO.C,J7*%
X176401666Y-114457380D02*
X176401666Y-115171666D01*
X176354047Y-115314523D01*
X176258809Y-115409761D01*
X176115952Y-115457380D01*
X176020714Y-115457380D01*
X176782619Y-114457380D02*
X177449285Y-114457380D01*
X177020714Y-115457380D01*
%TO.C,J1*%
X164122857Y-73707380D02*
X164122857Y-74421666D01*
X164075238Y-74564523D01*
X163980000Y-74659761D01*
X163837143Y-74707380D01*
X163741905Y-74707380D01*
X165122857Y-74707380D02*
X164551429Y-74707380D01*
X164837143Y-74707380D02*
X164837143Y-73707380D01*
X164741905Y-73850238D01*
X164646667Y-73945476D01*
X164551429Y-73993095D01*
%TO.C,J4*%
X189387381Y-73707380D02*
X189387381Y-74421666D01*
X189339762Y-74564523D01*
X189244524Y-74659761D01*
X189101667Y-74707380D01*
X189006429Y-74707380D01*
X190292143Y-74040714D02*
X190292143Y-74707380D01*
X190054048Y-73659761D02*
X189815953Y-74374047D01*
X190435000Y-74374047D01*
D11*
%TO.C,J5*%
X173410000Y-121670000D02*
X173410000Y-116530000D01*
X173410000Y-116530000D02*
X170750000Y-116530000D01*
X170750000Y-124270000D02*
X170750000Y-122940000D01*
X170750000Y-121670000D02*
X170750000Y-116530000D01*
X173410000Y-121670000D02*
X170750000Y-121670000D01*
X172080000Y-124270000D02*
X170750000Y-124270000D01*
%TO.C,J2*%
X180370000Y-75695000D02*
X181700000Y-75695000D01*
X179040000Y-78295000D02*
X179040000Y-111375000D01*
X181700000Y-78295000D02*
X181700000Y-111375000D01*
X179040000Y-111375000D02*
X181700000Y-111375000D01*
X181700000Y-75695000D02*
X181700000Y-77025000D01*
X179040000Y-78295000D02*
X181700000Y-78295000D01*
%TO.C,J3*%
X155241191Y-75695000D02*
X156571191Y-75695000D01*
X153911191Y-78295000D02*
X156571191Y-78295000D01*
X156571191Y-75695000D02*
X156571191Y-77025000D01*
X153911191Y-111375000D02*
X156571191Y-111375000D01*
X153911191Y-78295000D02*
X153911191Y-111375000D01*
X156571191Y-78295000D02*
X156571191Y-111375000D01*
%TO.C,J6*%
X168720000Y-116530000D02*
X166060000Y-116530000D01*
X167390000Y-124270000D02*
X166060000Y-124270000D01*
X168720000Y-121670000D02*
X168720000Y-116530000D01*
X166060000Y-124270000D02*
X166060000Y-122940000D01*
X168720000Y-121670000D02*
X166060000Y-121670000D01*
X166060000Y-121670000D02*
X166060000Y-116530000D01*
%TO.C,J7*%
X175350000Y-124270000D02*
X175350000Y-122940000D01*
X178010000Y-121670000D02*
X175350000Y-121670000D01*
X175350000Y-121670000D02*
X175350000Y-116530000D01*
X178010000Y-121670000D02*
X178010000Y-116530000D01*
X178010000Y-116530000D02*
X175350000Y-116530000D01*
X176680000Y-124270000D02*
X175350000Y-124270000D01*
%TO.C,J1*%
X164456191Y-75695000D02*
X165786191Y-75695000D01*
X163126191Y-78295000D02*
X163126191Y-111375000D01*
X165786191Y-78295000D02*
X165786191Y-111375000D01*
X165786191Y-75695000D02*
X165786191Y-77025000D01*
X163126191Y-111375000D02*
X165786191Y-111375000D01*
X163126191Y-78295000D02*
X165786191Y-78295000D01*
%TO.C,J4*%
X188390715Y-111375000D02*
X191050715Y-111375000D01*
X189720715Y-75695000D02*
X191050715Y-75695000D01*
X191050715Y-75695000D02*
X191050715Y-77025000D01*
X188390715Y-78295000D02*
X191050715Y-78295000D01*
X191050715Y-78295000D02*
X191050715Y-111375000D01*
X188390715Y-78295000D02*
X188390715Y-111375000D01*
%TD*%
M02*
